<?xml version="1.0" encoding="UTF-8"?>
<svg width="406px" height="334px" viewBox="0 0 406 334" version="1.1" xmlns="http://www.w3.org/2000/svg" xmlns:xlink="http://www.w3.org/1999/xlink">
    <title>Frame</title>
    <defs>
        <path d="M0,0 L406,0 L406,334 L0,334 L0,0 Z" id="path-1"></path>
        <linearGradient x1="50%" y1="0%" x2="50%" y2="100%" id="linearGradient-2">
            <stop stop-color="#6A4C93" offset="0%"></stop>
            <stop stop-color="#4A90E2" offset="41.1440122%"></stop>
            <stop stop-color="#FD7272" offset="99.9644886%"></stop>
        </linearGradient>
    </defs>
    <g id="Frame" stroke="none" fill="none" xlink:href="#path-1" fill-rule="evenodd">
        <use fill="#FFFFFF" xlink:href="#path-1"></use>
        <g id="Go-Button" stroke-width="1" transform="translate(0, -0.5)" fill="url(#linearGradient-2)" stroke="#FFFFFF">
            <polygon id="Path-Copy" stroke-width="8" points="91 0 0 79 202.5 334.5 405.5 79 316 0"></polygon>
        </g>
        <g id="Go" stroke-width="1" transform="translate(129, -9)" fill="#FFFFFF">
            <path d="M34.65,205.25 C30.45,205.25 26.675,204.675 23.325,203.525 C19.975,202.375 17.35,200.9 15.45,199.1 C13.55,197.3 12.6,195.6 12.6,194 C12.6,192.5 13.35,190.625 14.85,188.375 C16.35,186.125 18.075,184.175 20.025,182.525 C21.975,180.875 23.5,180.05 24.6,180.05 C25.2,180.05 25.55,180.3 25.65,180.8 C26.85,184.7 28.525,187.925 30.675,190.475 C32.825,193.025 36.25,194.3 40.95,194.3 C44.35,194.3 47.1,193.4 49.2,191.6 C51.3,189.8 53.025,186.825 54.375,182.675 C55.725,178.525 56.9,172.7 57.9,165.2 L58.95,157.7 C52.55,163.9 44.95,167 36.15,167 C27.25,167 20.3,163.9 15.3,157.7 C10.3,151.5 7.8,142.25 7.8,129.95 C7.8,117.25 10.4,105.675 15.6,95.225 C20.8,84.775 27.725,76.525 36.375,70.475 C45.025,64.425 54.4,61.4 64.5,61.4 C70.8,61.4 75.825,62.575 79.575,64.925 C83.325,67.275 85.2,70.5 85.2,74.6 C85.2,77.2 84.2,80.35 82.2,84.05 C81.3,85.45 80.45,86.575 79.65,87.425 C78.85,88.275 77.95,88.7 76.95,88.7 C76.05,88.7 75.45,88.325 75.15,87.575 C74.85,86.825 74.6,85.85 74.4,84.65 C74.2,83.45 74,82.5 73.8,81.8 C72.3,75.7 67.65,72.65 59.85,72.65 C52.95,72.65 46.925,74.975 41.775,79.625 C36.625,84.275 32.65,90.6 29.85,98.6 C27.05,106.6 25.65,115.55 25.65,125.45 C25.65,135.25 27.1,142.325 30,146.675 C32.9,151.025 37.35,153.2 43.35,153.2 C51.15,153.2 57.05,149.75 61.05,142.85 L64.2,120.5 C64.5,117.9 65.55,115.65 67.35,113.75 C69.15,111.85 71.225,110.4 73.575,109.4 C75.925,108.4 78.05,107.9 79.95,107.9 C80.75,107.9 81.325,108 81.675,108.2 C82.025,108.4 82.2,108.8 82.2,109.4 C82.2,110 81.65,111.275 80.55,113.225 C79.45,115.175 78.7,117.9 78.3,121.4 L74.1,156.35 C72.2,171.75 67.8,183.75 60.9,192.35 C54,200.95 45.25,205.25 34.65,205.25 Z" id="Path" fill-rule="nonzero"></path>
            <path d="M104.55,168.5 C99.85,168.5 96.15,166.775 93.45,163.325 C90.75,159.875 89.4,154.9 89.4,148.4 C89.4,140.3 91.425,132.15 95.475,123.95 C99.525,115.75 104.625,108.975 110.775,103.625 C116.925,98.275 122.9,95.6 128.7,95.6 C133.4,95.6 137.05,97.35 139.65,100.85 C142.25,104.35 143.55,109.25 143.55,115.55 C143.55,123.25 141.625,131.25 137.775,139.55 C133.925,147.85 128.975,154.75 122.925,160.25 C116.875,165.75 110.75,168.5 104.55,168.5 Z M112.65,155.45 C115.45,155.45 118,153.975 120.3,151.025 C122.6,148.075 124.4,144.1 125.7,139.1 C127,134.1 127.65,128.65 127.65,122.75 C127.65,117.75 127.1,114.15 126,111.95 C124.9,109.75 123.2,108.65 120.9,108.65 C118.2,108.65 115.675,110.025 113.325,112.775 C110.975,115.525 109.075,119.3 107.625,124.1 C106.175,128.9 105.45,134.25 105.45,140.15 C105.45,150.35 107.85,155.45 112.65,155.45 Z" id="Shape" fill-rule="nonzero"></path>
        </g>
    </g>
</svg>